<?xml version="1.0" standalone="no"?>
<!DOCTYPE svg PUBLIC "-//W3C//DTD SVG 20010904//EN"
 "http://www.w3.org/TR/2001/REC-SVG-20010904/DTD/svg10.dtd">
<svg version="1.0" xmlns="http://www.w3.org/2000/svg"
 width="225.000000pt" height="225.000000pt" viewBox="0 0 225.000000 225.000000"
 preserveAspectRatio="xMidYMid meet">
<metadata>
Created by potrace 1.15, written by Peter Selinger 2001-2017
</metadata>
<g transform="translate(0.000000,225.000000) scale(0.100000,-0.100000)"
fill="#FFF" stroke="none">
<path d="M1184 2038 c-143 -11 -243 -52 -361 -147 -62 -50 -73 -50 -53 3 14
38 -2 40 -64 10 -75 -37 -121 -76 -153 -133 -24 -44 -29 -48 -51 -40 -30 12
-103 11 -121 0 -11 -7 -8 -14 15 -35 l29 -25 -38 -31 c-46 -39 -79 -94 -108
-185 -20 -61 -23 -92 -24 -251 -2 -179 -2 -182 -28 -215 -91 -120 -16 -295
130 -304 48 -3 48 -3 81 -66 46 -88 92 -147 167 -217 245 -229 610 -268 905
-96 113 66 230 194 293 320 25 50 27 51 78 57 111 13 175 94 167 207 -3 45
-11 67 -33 96 l-30 39 0 200 c0 225 -11 284 -71 413 -38 78 -54 90 -54 39 0
-41 -36 -96 -62 -97 -5 0 -8 36 -8 80 0 93 -21 208 -51 274 -11 25 -22 46 -23
46 -2 0 -13 -16 -24 -34 -23 -39 -81 -73 -147 -85 -25 -5 -45 -7 -45 -4 0 14
35 82 56 110 14 18 22 38 19 44 -9 13 -97 3 -194 -22 -40 -11 -75 -18 -77 -16
-2 2 0 17 5 34 11 39 2 41 -125 31z m60 -589 c83 -31 171 -100 216 -170 22
-34 42 -70 45 -80 4 -10 10 -19 15 -19 16 0 40 46 49 91 l8 44 41 -43 c43 -44
66 -100 78 -193 4 -27 10 -49 14 -49 4 0 19 9 34 21 23 18 27 18 32 5 7 -19
-1 -173 -11 -203 -7 -21 -4 -23 33 -23 23 0 43 -4 47 -9 8 -14 -31 -125 -71
-202 -238 -454 -857 -534 -1199 -157 -65 72 -129 181 -160 273 -35 103 -34
105 23 105 l47 0 0 132 c0 124 2 137 27 188 43 89 40 87 91 57 25 -15 48 -27
50 -27 3 0 8 24 11 54 8 57 52 162 79 184 14 12 30 9 109 -22 51 -20 125 -43
163 -51 79 -17 185 -20 185 -5 0 5 -19 18 -43 28 -43 19 -107 75 -107 94 0 17
130 1 194 -23z m770 -503 c44 -93 -9 -210 -108 -237 -62 -17 -66 -10 -46 63
10 35 21 92 25 127 7 62 8 63 48 81 47 21 57 17 81 -34z m-1678 23 c6 -5 16
-47 23 -94 6 -46 18 -102 26 -124 12 -34 12 -40 -2 -45 -42 -16 -120 27 -152
84 -19 34 -22 52 -19 95 3 29 12 65 22 80 16 24 22 26 54 20 21 -4 42 -11 48
-16z"/>
<path d="M743 985 c-53 -37 -45 -156 12 -184 40 -20 76 -5 99 42 44 91 -36
194 -111 142z"/>
<path d="M1405 976 c-32 -32 -40 -69 -26 -117 26 -87 116 -90 145 -5 16 47 10
89 -20 121 -29 32 -68 32 -99 1z"/>
</g>
</svg>
